<?xml version="1.0" standalone="no"?>
<!DOCTYPE svg PUBLIC "-//W3C//DTD SVG 20010904//EN"
 "http://www.w3.org/TR/2001/REC-SVG-20010904/DTD/svg10.dtd">
<svg version="1.0" xmlns="http://www.w3.org/2000/svg"
 width="180.000000pt" height="80.000000pt" viewBox="0 0 180.000000 80.000000"
 preserveAspectRatio="xMidYMid meet">

<g transform="translate(0.000000,80.000000) scale(0.100000,-0.100000)"
fill="#000000" stroke="none">
<path d="M549 553 l-36 -98 26 -3 c15 -2 30 3 37 12 15 21 84 22 84 1 0 -10
10 -15 30 -15 17 0 30 3 30 8 0 4 -15 49 -32 99 l-33 93 -35 0 -36 0 -35 -97z
m86 -5 c6 -24 4 -28 -14 -28 -22 0 -25 10 -15 48 8 27 20 19 29 -20z"/>
<path d="M820 591 c-8 -6 -27 -7 -42 -4 l-28 6 0 -72 c0 -69 1 -71 25 -71 23
0 25 3 25 49 0 33 5 51 14 54 21 8 26 -2 26 -55 0 -45 2 -48 25 -48 23 0 25 4
25 44 0 48 18 74 38 54 7 -7 12 -31 12 -55 0 -39 2 -43 25 -43 24 0 25 3 25
60 0 53 -3 61 -25 76 -21 14 -31 15 -51 5 -17 -8 -31 -8 -44 -1 -23 12 -31 12
-50 1z"/>
<path d="M1053 590 c-30 -12 -30 -40 0 -40 13 0 28 5 34 11 11 11 33 5 33 -10
0 -5 -19 -12 -41 -17 -49 -10 -70 -35 -53 -61 9 -14 27 -18 83 -20 l71 -1 0
52 c0 29 -6 60 -13 70 -15 20 -82 30 -114 16z m65 -87 c-3 -19 -48 -32 -48
-14 0 10 28 30 43 31 5 0 7 -8 5 -17z"/>
<path d="M1403 590 c-46 -19 -57 -86 -21 -120 29 -27 91 -27 118 0 25 25 26
81 2 103 -23 21 -70 29 -99 17z m65 -61 c2 -15 -4 -31 -13 -39 -24 -20 -50 9
-41 45 9 36 50 32 54 -6z"/>
<path d="M1631 591 c-8 -5 -29 -7 -48 -4 l-33 6 0 -72 0 -71 29 0 c29 0 30 2
33 53 2 38 7 52 18 52 11 0 16 -14 18 -52 3 -49 5 -53 28 -53 23 0 24 3 24 65
0 53 -3 66 -19 75 -24 12 -32 12 -50 1z"/>
<path d="M1210 575 c0 -10 10 -15 32 -15 l32 0 -37 -38 c-57 -59 -51 -72 33
-72 63 0 70 2 70 20 0 16 -7 20 -37 20 l-37 0 37 38 c53 54 49 62 -28 62 -51
0 -65 -3 -65 -15z"/>
<path d="M183 544 c-65 -32 -94 -131 -58 -194 8 -14 14 -28 15 -31 0 -4 -25
-26 -56 -50 l-56 -43 28 -23 c102 -83 276 -55 349 56 64 95 31 236 -66 286
-37 20 -116 19 -156 -1z m131 -119 c13 -35 5 -67 -23 -96 -34 -33 -83 -39
-119 -13 -22 15 -22 17 -5 29 11 9 31 12 53 9 42 -7 63 12 58 48 -2 18 -9 23
-33 23 -27 0 -30 -3 -28 -27 2 -30 -14 -38 -24 -12 -10 27 10 68 37 74 29 8
75 -12 84 -35z"/>
<path d="M620 270 l0 -100 30 0 c28 0 30 2 30 40 l0 40 40 0 c33 0 40 3 40 20
0 17 -7 20 -40 20 -28 0 -40 4 -40 14 0 11 14 16 48 18 40 3 47 6 50 26 3 21
1 22 -77 22 l-81 0 0 -100z"/>
<path d="M831 308 c-36 -19 -38 -38 -4 -38 16 0 34 5 40 11 12 12 33 4 33 -12
0 -5 -6 -9 -12 -9 -7 0 -30 -5 -50 -11 -33 -8 -38 -14 -38 -39 0 -34 11 -38
96 -38 l60 0 -4 62 c-2 33 -7 64 -11 68 -13 15 -86 18 -110 6z m67 -85 c-3
-19 -48 -32 -48 -14 0 10 28 30 43 31 5 0 7 -8 5 -17z"/>
<path d="M1056 312 c-3 -5 -19 -7 -36 -4 l-30 4 0 -71 c0 -69 1 -71 25 -71 21
0 25 5 25 29 0 44 18 84 34 78 15 -6 30 19 20 34 -7 11 -31 12 -38 1z"/>
<path d="M1201 311 c-8 -5 -29 -7 -48 -4 l-33 6 0 -72 0 -71 29 0 c29 0 30 2
33 53 2 38 7 52 18 52 11 0 16 -14 18 -52 3 -49 5 -53 28 -53 22 0 24 4 24 44
0 41 19 74 33 59 4 -3 7 -28 7 -55 0 -47 1 -48 30 -48 30 0 30 1 30 55 0 65
-26 102 -63 90 -27 -9 -46 -9 -72 -1 -11 4 -26 2 -34 -3z"/>
<path d="M1422 305 c-36 -26 -25 -57 26 -73 44 -14 56 -32 22 -32 -11 0 -20 5
-20 11 0 9 -37 4 -49 -7 -13 -12 27 -34 61 -34 51 0 78 15 78 43 0 31 -18 47
-51 47 -28 0 -47 16 -35 28 4 3 15 2 24 -4 9 -6 28 -8 41 -5 21 6 22 8 8 19
-26 22 -79 25 -105 7z"/>
</g>
</svg>
